<svg width="30" height="30" viewBox="0 0 30 30" fill="none" xmlns="http://www.w3.org/2000/svg">
<g clip-path="url(#clip0_704_8245)">
<path d="M28.9435 25.5827L17.3635 14.0026L3.83423 0.473389H2.77691L2.56102 1.02198C1.9912 2.46996 1.74774 3.95093 1.85704 5.30461C1.98163 6.84764 2.56782 8.18355 3.55235 9.16808L14.114 19.7297L15.5071 18.3367L25.2713 29.2549C26.2426 30.2263 27.9145 30.2839 28.9435 29.2549C29.956 28.2424 29.956 26.5951 28.9435 25.5827Z" fill="#B6B6B6"/>
<path d="M9.21912 17.2854L0.947278 25.5572C-0.0651084 26.5696 -0.0651084 28.217 0.947278 29.2294C1.90902 30.1911 3.57278 30.276 4.61943 29.2294L12.8913 20.9575L9.21912 17.2854Z" fill="#B6B6B6"/>
<path d="M28.457 5.38993L23.7648 10.0821L22.5407 8.85807L27.2329 4.1658L26.0089 2.94173L21.3166 7.63394L20.0926 6.40987L24.7848 1.71766L23.5608 0.493652L17.4405 6.614C16.6917 7.36274 16.2447 8.3569 16.1815 9.41346C16.1655 9.68115 16.1048 9.94446 16.0042 10.1949L19.9799 14.1707C20.2304 14.0699 20.4937 14.0093 20.7614 13.9933C21.8179 13.9303 22.8121 13.4831 23.5608 12.7343L29.6812 6.61406L28.457 5.38993Z" fill="#B6B6B6"/>
</g>
<defs>
<clipPath id="clip0_704_8245">
<rect width="29.5318" height="29.5318" fill="white" transform="translate(0.178955 0.474121)"/>
</clipPath>
</defs>
</svg>
